<?xml version="1.0" encoding="utf-8"?>
<!-- Generator: Adobe Illustrator 16.0.3, SVG Export Plug-In . SVG Version: 6.00 Build 0)  -->
<!DOCTYPE svg PUBLIC "-//W3C//DTD SVG 1.1//EN" "http://www.w3.org/Graphics/SVG/1.1/DTD/svg11.dtd">
<svg version="1.1" xmlns="http://www.w3.org/2000/svg" xmlns:xlink="http://www.w3.org/1999/xlink" x="0px" y="0px" width="612px"
	 height="792px" viewBox="0 0 612 792" enable-background="new 0 0 612 792" xml:space="preserve">
<g id="Capa_1">
	<g>
		<path fill="#E0E1E2" d="M306,216.621v61.928c0,15.311-10.256,29.429-25.282,32.404c-20.165,3.999-38.029-11.522-38.029-31.022
			v94.965c0,19.5-17.864,35.021-38.028,31.021c-15.025-2.985-25.282-17.093-25.282-32.404v-35.549
			c0,8.568-4.168,16.187-10.552,21.009v333.793C208.797,698.623,255.753,702,306,702c60.103,0,115.479-4.833,159.827-12.958V203.663
			C421.479,211.788,366.103,216.621,306,216.621z"/>
		<path fill="#C2C3C5" d="M145.835,363.385c-11.607-3.113-19.215-14.33-19.215-26.348V205.689c0-2.005,0.232-3.946,0.591-5.846
			c-3.208-0.707-6.331-1.435-9.38-2.184c-0.274-0.063-0.527-0.137-0.802-0.2c-2.765-0.676-5.466-1.372-8.093-2.089
			c-0.443-0.116-0.865-0.243-1.309-0.359c-2.438-0.665-4.822-1.34-7.144-2.026c-0.538-0.158-1.055-0.327-1.583-0.485
			c-2.153-0.654-4.252-1.319-6.299-1.984c-0.633-0.211-1.235-0.422-1.857-0.633c-1.889-0.633-3.746-1.288-5.54-1.942
			c-0.665-0.243-1.319-0.496-1.983-0.749c-1.667-0.633-3.303-1.266-4.875-1.91c-0.686-0.274-1.351-0.56-2.016-0.844
			c-1.488-0.633-2.923-1.266-4.326-1.91c-0.665-0.306-1.319-0.612-1.962-0.918c-1.309-0.623-2.564-1.267-3.788-1.899
			c-0.644-0.338-1.288-0.665-1.899-1.002c-1.14-0.623-2.227-1.256-3.282-1.889c-0.612-0.369-1.213-0.728-1.793-1.086
			c-0.981-0.623-1.899-1.245-2.807-1.878c-0.548-0.391-1.108-0.781-1.625-1.171c-0.844-0.623-1.614-1.266-2.374-1.899
			c-0.475-0.391-0.971-0.792-1.414-1.192c-0.696-0.633-1.329-1.277-1.941-1.92c-0.412-0.412-0.833-0.823-1.203-1.235
			c-0.57-0.644-1.045-1.298-1.52-1.941c-0.316-0.422-0.665-0.844-0.95-1.266c-0.433-0.675-0.781-1.351-1.129-2.026
			c-0.211-0.412-0.475-0.823-0.654-1.245c-0.327-0.739-0.528-1.488-0.749-2.237c-0.106-0.358-0.264-0.707-0.338-1.065
			c-0.243-1.108-0.369-2.227-0.369-3.345v485.379c0,22.908,50.69,42.967,126.621,54.089V358.974
			C162.666,363.638,154.456,365.695,145.835,363.385z"/>
		<path fill="#C2C3C5" d="M569.793,638.689V153.311c0,20.544-40.793,38.788-103.966,50.353v485.379
			C529,677.478,569.793,659.233,569.793,638.689z"/>
		<path fill="#F99D36" d="M189.551,517.345L189.551,517.345c-14.572-14.572-14.572-38.187,0-52.759l26.379-26.379l26.379,26.379
			c14.572,14.572,14.572,38.187,0,52.759l0,0C227.749,531.917,204.123,531.917,189.551,517.345z"/>
		<path fill="#E7ECED" d="M263.793,701.166C277.553,701.694,291.618,702,306,702c21.842,0,43.02-0.654,63.311-1.857V214.764
			c-20.291,1.203-41.469,1.857-63.311,1.857v61.928c0,15.311-10.256,29.429-25.282,32.404c-6.015,1.192-11.744,0.485-16.925-1.382
			V701.166z"/>
		<path fill="#FFECD8" d="M315.581,607.034h-19.162c-145.994,0-264.764-137.014-264.764-305.44v-63.87
			c0-5.835,4.716-10.552,10.552-10.552c5.835,0,10.552,4.717,10.552,10.552v63.87c0,156.777,109.305,284.337,243.66,284.337h19.162
			c134.355,0,243.66-127.56,243.66-284.337v-63.87c0-5.835,4.717-10.552,10.552-10.552s10.552,4.717,10.552,10.552v63.87
			C580.345,470.021,461.574,607.034,315.581,607.034z"/>
		<path fill="#F99D36" d="M306,90c-145.688,0-263.793,28.342-263.793,63.311c0,18.402,32.752,34.968,85.004,46.533
			c-0.358,1.91-0.591,3.852-0.591,5.846v131.348c0,12.008,7.608,23.235,19.215,26.348c17.547,4.706,33.544-8.579,33.544-25.419
			v35.549c0,15.311,10.256,29.429,25.282,32.404c20.165,4,38.028-11.522,38.028-31.021v-94.965c0,19.5,17.864,35.021,38.029,31.022
			C295.744,307.967,306,293.859,306,278.549v-61.928c145.688,0,263.793-28.342,263.793-63.31C569.793,118.342,451.688,90,306,90z"/>
		<g>
			<path fill="#FFECD8" d="M126.621,205.689c0-2.005,0.232-3.946,0.591-5.846c-52.252-11.564-85.004-28.131-85.004-46.533v52.758
				c0,18.339,32.51,34.842,84.414,46.407V205.689z"/>
			<path fill="#FFECD8" d="M306,216.621v52.759c145.688,0,263.793-28.342,263.793-63.311v-52.758
				C569.793,188.279,451.688,216.621,306,216.621z"/>
		</g>
	</g>
	<text id="Plugin_Maker" transform="matrix(1.1702 0 0 1 215.9302 417.1035)" opacity="0.8"><tspan x="0" y="0" fill="#F99D36" stroke="#000000" stroke-width="2" stroke-miterlimit="10" font-family="'TrebuchetMS-Bold'" font-size="66.3023">Plugin</tspan><tspan x="0" y="79.563" stroke="#000000" stroke-width="2" stroke-miterlimit="10" font-family="'TrebuchetMS-Bold'" font-size="66.3023">Maker</tspan></text>
</g>
<g id="Layer_2">
	<path fill="#F99D36" d="M189.551,517.345L189.551,517.345c-14.572-14.572-14.572-38.187,0-52.759l26.379-26.379l26.379,26.379
		c14.572,14.572,14.572,38.187,0,52.759l0,0C227.749,531.917,204.123,531.917,189.551,517.345z"/>
	<path fill="#F99D36" d="M306,90c-145.688,0-263.793,28.342-263.793,63.311c0,18.402,32.752,34.969,85.004,46.533
		c-0.358,1.91-0.591,3.852-0.591,5.846v131.348c0,12.008,7.608,23.234,19.215,26.348c17.547,4.706,33.544-8.578,33.544-25.42v35.549
		c0,15.311,10.256,29.43,25.282,32.404c20.165,4,38.028-11.521,38.028-31.021v-94.965c0,19.499,17.864,35.021,38.029,31.021
		C295.744,307.967,306,293.859,306,278.549v-61.928c145.688,0,263.793-28.342,263.793-63.311S451.688,90,306,90z"/>
</g>
<g id="Layer_3">
	<g>
		<path d="M309.781,150.844l-2.019-18.938c-0.436-4.084-3.861-7.287-7.986-7.483l-11.945-0.597
			c-2.204-5.771-5.102-11.271-8.704-16.338l6.142-9.386c2.203-3.38,1.445-7.939-1.744-10.618l-14.868-12.489
			c-3.189-2.677-7.812-2.637-10.759,0.116l-8.084,7.552c-5.523-2.678-11.331-4.614-17.267-5.841l-2.452-10.886
			c-0.906-4.029-4.673-6.826-8.751-6.574l-18.958,1.28c-4.097,0.277-7.194,3.559-7.233,7.652l-0.102,10.741
			c-5.976,2.008-11.597,4.806-16.776,8.342l-9.348-6.217c-3.49-2.319-8.054-1.739-10.629,1.327L146.288,96.79
			c-2.575,3.067-2.356,7.661,0.528,10.699l7.738,8.134c-2.664,5.852-4.475,12.053-5.401,18.466l-10.963,2.028
			c-4.025,0.747-6.699,4.384-6.289,8.447l2.019,18.938c0.436,4.084,3.86,7.288,7.986,7.484l11.875,0.577
			c2.283,5.677,5.283,11.056,8.94,16.007l-6.358,9.694c-2.005,3.076-1.55,7.124,0.947,9.845c3.221,0.479,6.433,0.949,9.615,1.457
			c7.469,1.191,14.965,1.583,22.475,2.403c6.946,0.759,13.938,1.804,20.923,2.115c7.579,0.338,15.217-0.31,22.768,0.583
			c4.534,0.536,9.021,1.407,13.526,2.128l0.011-1.14c5.446-1.881,10.595-4.421,15.361-7.568l10.763,7.161
			c3.49,2.318,8.053,1.739,10.629-1.327l12.012-14.302c2.577-3.067,2.359-7.663-0.528-10.699l-8.603-9.025
			c2.562-5.528,4.366-11.368,5.401-17.403l11.829-2.2C307.517,158.544,310.191,154.907,309.781,150.844z M245.126,167.59
			c-10.946,13.033-30.894,14.379-44.442,2.999c-13.548-11.379-15.667-31.259-4.72-44.292c10.946-13.034,30.893-14.379,44.441-2.999
			C253.954,134.678,256.073,154.558,245.126,167.59z"/>
		<path d="M358.607,21.762l-12.962,1.982c-3.995,0.608-6.774,4.118-6.458,8.142l0.56,7.579c-4.728,2.035-9.111,4.727-13.072,7.978
			l-6.965-3.847c-3.59-1.995-8.046-1.039-10.333,2.189l-7.397,10.578c-2.263,3.249-1.689,7.776,1.394,10.528l5.916,5.295
			c-1.761,4.979-2.816,10.181-3.111,15.489l-7.622,2.095c-3.875,1.075-6.216,4.872-5.449,8.865l2.541,13.004
			c0.765,3.993,4.407,6.89,8.451,6.729l8.492-0.302c2.27,4.479,5.075,8.676,8.361,12.5l-3.911,7.337
			c-1.873,3.493-0.738,7.959,2.602,10.355l10.941,7.759c3.355,2.373,7.896,1.976,10.551-0.983l5.877-6.544
			c4.366,1.582,8.876,2.634,13.47,3.183l2.743,8.717c1.232,3.895,5.147,6.366,9.14,5.757l12.965-1.981
			c3.993-0.609,6.771-4.119,6.454-8.144l-0.659-8.972c4.285-1.917,8.313-4.334,11.946-7.247l8.17,4.532
			c3.593,1.996,8.048,1.04,10.336-2.188l7.398-10.579c2.26-3.248,1.687-7.774-1.395-10.528l-6.693-5.989
			c1.697-4.702,2.762-9.611,3.184-14.611l8.303-2.301c3.876-1.076,6.214-4.871,5.45-8.865l-2.492-12.961
			c-0.768-3.993-4.411-6.888-8.45-6.729l-8.516,0.326c-2.188-4.575-4.938-8.887-8.21-12.78l3.761-7.056
			c1.872-3.493,0.739-7.958-2.602-10.355l-10.94-7.758c-3.357-2.374-7.896-1.977-10.552,0.981l-5.249,5.848
			c-4.684-1.809-9.529-3.018-14.469-3.611l-2.374-7.592C366.542,23.645,362.602,21.152,358.607,21.762z M386.613,108.574
			c-7.986,11.433-24.119,13.899-35.921,5.498c-11.825-8.378-14.927-24.509-6.914-35.919c7.989-11.432,24.12-13.898,35.923-5.497
			C391.524,81.034,394.626,97.164,386.613,108.574z"/>
		<path d="M373.238,214.601c12.53-2.158,25.265-1.825,37.877-3.179c-1.412-2.117-3.768-3.564-6.453-3.726l-5.615-0.343
			c-1.411-3.883-3.3-7.553-5.658-10.964l2.917-4.332c2.212-3.291,1.522-7.833-1.619-10.513l-6.241-5.364
			c-3.121-2.705-7.704-2.712-10.639-0.028l-3.782,3.441c-3.664-1.809-7.526-3.177-11.474-4.04l-1.055-5.014
			c-0.855-3.988-4.514-6.814-8.571-6.586l-8.069,0.454c-4.059,0.23-7.164,3.423-7.255,7.474l-0.116,4.844
			c-4.014,1.287-7.788,3.102-11.26,5.416l-4.231-2.901c-3.401-2.325-7.95-1.813-10.531,1.208l-5.164,5.998
			c-2.607,3.001-2.438,7.555,0.377,10.574l3.483,3.743c-1.81,3.874-3.069,8.003-3.75,12.253l-5.056,0.861
			c-2.199,0.386-3.98,1.649-5.089,3.374c0.797,0.002,1.486,0.166,2.085,0.437c0.613-0.281,1.329-0.441,2.152-0.437
			c0.563,0.003,1.126,0.011,1.689,0.016c0.534-0.183,1.135-0.283,1.811-0.266c7.6,0.189,15.243-1.384,22.858-1.479
			c2.065-0.026,4.479-0.069,6.881,0.131c0.765-2.654,2.072-5.177,3.976-7.392c7.404-8.614,20.707-9.331,29.668-1.641
			C370.021,208.883,371.969,211.634,373.238,214.601z"/>
	</g>
</g>
</svg>
